<?xml version="1.0" encoding="UTF-8"?>
<svg id="Layer_1" data-name="Layer 1" xmlns="http://www.w3.org/2000/svg" xmlns:xlink="http://www.w3.org/1999/xlink" viewBox="0 0 842.65 269.42">
  <defs>
    <style>
      .cls-1, .cls-2, .cls-3, .cls-4 {
        fill: none;
      }

      .cls-2 {
        clip-path: url(#clippath-2);
      }

      .cls-3 {
        clip-path: url(#clippath-1);
      }

      .cls-5 {
        fill: #e4e4d3;
      }

      .cls-4 {
        clip-path: url(#clippath);
      }
    </style>
    <clipPath id="clippath">
      <polygon class="cls-1" points="150 91.3 150 177.9 225 221.2 225 134.6 150 91.3"/>
    </clipPath>
    <clipPath id="clippath-1">
      <polygon class="cls-1" points="225 47.99 150 4.69 0 91.3 0 177.9 150 91.3 225 134.6 225 47.99"/>
    </clipPath>
    <clipPath id="clippath-2">
      <polygon class="cls-1" points="75 134.6 0 177.9 150 264.5 225 221.2 75 134.6"/>
    </clipPath>
  </defs>
  <g>
    <path class="cls-5" d="m304.03,191c-5.19-4.75-7.79-11.87-7.79-21.36v-60.32c0-9.49,2.6-16.62,7.79-21.36,5.2-4.75,12.65-7.12,22.37-7.12h23.79v12.73h-25.47c-4.13,0-7.49,1.23-10.05,3.69-2.57,2.46-3.85,5.42-3.85,8.88v66.69c0,3.46,1.28,6.42,3.85,8.88,2.57,2.46,5.92,3.69,10.05,3.69h25.47v12.73h-23.79c-9.72,0-17.18-2.37-22.37-7.12Z"/>
    <path class="cls-5" d="m390.44,198.12v-54.46l-29.99-62.84h16.09l22.12,48.76,22.12-48.76h15.25l-30.5,62.84v54.46h-15.08Z"/>
    <path class="cls-5" d="m501.99,192.09c-4.41,4.02-11.7,6.03-21.87,6.03h-33.51v-117.29h31.5c9.94,0,17.23,2.01,21.87,6.03,4.63,4.02,6.95,10.72,6.95,20.11v9.55c0,8.6-3.07,15.08-9.22,19.44,7.26,4.02,10.89,10.89,10.89,20.61v15.08c0,9.61-2.21,16.42-6.62,20.44Zm-12.57-95.85c-1.96-1.9-5.06-2.85-9.3-2.85h-18.93v37.03h18.93c3.46,0,6.37-1.11,8.71-3.35,2.35-2.23,3.52-5.19,3.52-8.88v-12.73c0-4.24-.98-7.32-2.93-9.21Zm1.26,50.02c-2.24-2.18-5.19-3.27-8.88-3.27h-20.61v42.56h20.44c4.24,0,7.37-.98,9.38-2.93,2.01-1.95,3.02-5.05,3.02-9.3v-18.27c0-3.69-1.12-6.62-3.35-8.8Z"/>
    <path class="cls-5" d="m581.23,191c-5.19,4.75-12.65,7.12-22.37,7.12h-6.7c-9.72,0-17.18-2.37-22.37-7.12-5.2-4.75-7.79-11.87-7.79-21.36v-60.32c0-9.49,2.6-16.62,7.79-21.36,5.19-4.75,12.65-7.12,22.37-7.12h6.7c9.72,0,17.18,2.37,22.37,7.12,5.19,4.75,7.79,11.87,7.79,21.36v60.32c0,9.5-2.6,16.62-7.79,21.36Zm-10.64-93.75c-2.57-2.46-5.92-3.69-10.05-3.69h-10.05c-4.13,0-7.49,1.23-10.05,3.69-2.57,2.46-3.85,5.42-3.85,8.88v66.69c0,3.46,1.28,6.42,3.85,8.88,2.57,2.46,5.92,3.69,10.05,3.69h10.05c4.13,0,7.48-1.23,10.05-3.69,2.57-2.46,3.85-5.42,3.85-8.88v-66.69c0-3.46-1.29-6.42-3.85-8.88Z"/>
    <path class="cls-5" d="m618.68,149.53v48.59h-14.58v-117.29h31.5c9.49,0,16.67,2.1,21.53,6.28,4.86,4.19,7.29,10.81,7.29,19.86v16.09c0,12.63-5.03,20.5-15.08,23.63l23.29,51.44h-15.92l-21.62-48.59h-16.42Zm28.23-53.28c-1.96-1.9-5.06-2.85-9.3-2.85h-18.93v43.57h18.93c4.24,0,7.34-.98,9.3-2.93s2.93-5.05,2.93-9.3v-19.27c0-4.24-.98-7.32-2.93-9.21Z"/>
    <path class="cls-5" d="m685.4,191c-5.2-4.75-7.79-11.87-7.79-21.36v-60.32c0-9.49,2.6-16.62,7.79-21.36,5.19-4.75,12.65-7.12,22.37-7.12h23.63v12.73h-25.3c-4.13,0-7.49,1.23-10.05,3.69-2.57,2.46-3.85,5.42-3.85,8.88v66.69c0,3.46,1.28,6.42,3.85,8.88,2.57,2.46,5.92,3.69,10.05,3.69h16.42v-36.36h-14.58v-12.57h28.49v61.66h-28.65c-9.72,0-17.18-2.37-22.37-7.12Z"/>
    <path class="cls-5" d="m842.65,185.59v12.57h-84.45v-12.57h84.45Z"/>
  </g>
  <g>
    <g class="cls-4">
      <g>
        <rect class="cls-5" x="188.98" y="70.19" width=".75" height="92.75" transform="translate(-6.23 222.34) rotate(-60.02)"/>
        <rect class="cls-5" x="188.98" y="75.6" width=".75" height="92.75" transform="translate(-10.92 225.05) rotate(-60.02)"/>
        <rect class="cls-5" x="188.98" y="81.01" width=".75" height="92.75" transform="translate(-15.6 227.76) rotate(-60.02)"/>
        <rect class="cls-5" x="188.98" y="86.42" width=".75" height="92.75" transform="translate(-20.29 230.47) rotate(-60.02)"/>
        <rect class="cls-5" x="188.98" y="91.84" width=".75" height="92.75" transform="translate(-24.98 233.17) rotate(-60.02)"/>
        <rect class="cls-5" x="188.98" y="97.25" width=".75" height="92.75" transform="translate(-29.67 235.88) rotate(-60.02)"/>
        <rect class="cls-5" x="188.98" y="102.66" width=".75" height="92.75" transform="translate(-34.36 238.59) rotate(-60.02)"/>
        <rect class="cls-5" x="188.98" y="108.07" width=".75" height="92.75" transform="translate(-39.05 241.3) rotate(-60.02)"/>
        <rect class="cls-5" x="188.98" y="113.49" width=".75" height="92.75" transform="translate(-43.74 244.01) rotate(-60.02)"/>
        <rect class="cls-5" x="188.98" y="118.9" width=".75" height="92.75" transform="translate(-48.42 246.71) rotate(-60.02)"/>
        <rect class="cls-5" x="188.98" y="124.31" width=".75" height="92.75" transform="translate(-53.11 249.42) rotate(-60.02)"/>
        <rect class="cls-5" x="188.98" y="129.73" width=".75" height="92.75" transform="translate(-57.8 252.13) rotate(-60.02)"/>
        <rect class="cls-5" x="188.98" y="135.14" width=".75" height="92.75" transform="translate(-62.49 254.84) rotate(-60.02)"/>
        <rect class="cls-5" x="188.98" y="140.55" width=".75" height="92.75" transform="translate(-67.18 257.55) rotate(-60.02)"/>
        <rect class="cls-5" x="188.98" y="145.96" width=".75" height="92.75" transform="translate(-71.87 260.25) rotate(-60.02)"/>
        <rect class="cls-5" x="188.98" y="151.38" width=".75" height="92.75" transform="translate(-76.56 262.96) rotate(-60.02)"/>
        <rect class="cls-5" x="188.98" y="156.79" width=".75" height="92.75" transform="translate(-81.24 265.67) rotate(-60.02)"/>
      </g>
    </g>
    <g class="cls-3">
      <g>
        <rect class="cls-5" x="0" y="78.39" width="14.56" height="106.6"/>
        <rect class="cls-5" x="16.18" y="68.77" width="14.56" height="106.6"/>
        <rect class="cls-5" x="32.35" y="59.14" width="14.56" height="106.6"/>
        <rect class="cls-5" x="48.53" y="49.52" width="14.56" height="106.6"/>
        <rect class="cls-5" x="64.71" y="39.9" width="14.56" height="106.6"/>
        <rect class="cls-5" x="80.89" y="30.28" width="14.56" height="106.6"/>
        <rect class="cls-5" x="97.06" y="20.65" width="14.56" height="106.6"/>
        <rect class="cls-5" x="113.24" y="11.03" width="14.56" height="106.6"/>
        <rect class="cls-5" x="129.42" y="1.41" width="14.56" height="106.6"/>
        <rect class="cls-5" x="145.59" y="-8.21" width="14.56" height="106.6"/>
        <rect class="cls-5" x="161.95" y="1.41" width="14.56" height="106.6"/>
        <rect class="cls-5" x="178.3" y="11.03" width="14.56" height="106.6"/>
        <rect class="cls-5" x="194.66" y="20.65" width="14.56" height="106.6"/>
        <rect class="cls-5" x="211.01" y="30.28" width="14.56" height="106.6"/>
        <rect class="cls-5" x="227.36" y="39.9" width="14.56" height="106.6"/>
      </g>
    </g>
    <g class="cls-2">
      <g>
        <polygon class="cls-5" points="-1.14 191.75 -6.01 183.59 82.47 132.48 87.33 140.65 -1.14 191.75"/>
        <polygon class="cls-5" points="14.71 200.38 10.28 192.94 98.76 141.84 103.19 149.28 14.71 200.38"/>
        <polygon class="cls-5" points="30.57 209.01 26.57 202.3 115.04 151.19 119.04 157.91 30.57 209.01"/>
        <polygon class="cls-5" points="46.43 217.64 42.86 211.65 131.33 160.55 134.9 166.54 46.43 217.64"/>
        <polygon class="cls-5" points="62.28 226.27 59.15 221.01 147.62 169.9 150.76 175.17 62.28 226.27"/>
        <polygon class="cls-5" points="78.14 234.9 75.44 230.36 163.91 179.26 166.61 183.8 78.14 234.9"/>
        <polygon class="cls-5" points="94 243.53 91.73 239.72 180.2 188.61 182.47 192.43 94 243.53"/>
        <polygon class="cls-5" points="109.85 252.16 108.01 249.07 196.49 197.97 198.32 201.06 109.85 252.16"/>
        <polygon class="cls-5" points="125.71 260.79 124.3 258.43 212.78 207.33 214.18 209.68 125.71 260.79"/>
        <polygon class="cls-5" points="141.56 269.42 140.59 267.78 229.06 216.68 230.04 218.31 141.56 269.42"/>
      </g>
    </g>
  </g>
</svg>